<?xml version="1.0" encoding="utf-8" standalone="no"?>
<!DOCTYPE svg PUBLIC "-//W3C//DTD SVG 1.1//EN"
  "http://www.w3.org/Graphics/SVG/1.1/DTD/svg11.dtd">
<!-- Created with matplotlib (https://matplotlib.org/) -->
<svg height="419.406506pt" version="1.1" viewBox="0 0 707.0875 419.406506" width="707.0875pt" xmlns="http://www.w3.org/2000/svg" xmlns:xlink="http://www.w3.org/1999/xlink">
 <defs>
  <style type="text/css">
*{stroke-linecap:butt;stroke-linejoin:round;}
  </style>
 </defs>
 <g id="figure_1">
  <g id="patch_1">
   <path d="M -0 419.406506 
L 707.0875 419.406506 
L 707.0875 0 
L -0 0 
z
" style="fill:#ffffff;"/>
  </g>
  <g id="axes_1">
   <g id="patch_2">
    <path d="M 60.30875 171.084205 
L 692.88875 171.084205 
L 692.88875 22.989545 
L 60.30875 22.989545 
z
" style="fill:#ffffff;"/>
   </g>
   <g id="matplotlib.axis_1">
    <g id="xtick_1">
     <g id="line2d_1">
      <defs>
       <path d="M 0 0 
L 0 6 
" id="mfa1f2e571d" style="stroke:#262626;stroke-width:1.25;"/>
      </defs>
      <g>
       <use style="fill:#262626;stroke:#262626;stroke-width:1.25;" x="84.63875" xlink:href="#mfa1f2e571d" y="171.084205"/>
      </g>
     </g>
    </g>
    <g id="xtick_2">
     <g id="line2d_2">
      <g>
       <use style="fill:#262626;stroke:#262626;stroke-width:1.25;" x="206.28875" xlink:href="#mfa1f2e571d" y="171.084205"/>
      </g>
     </g>
    </g>
    <g id="xtick_3">
     <g id="line2d_3">
      <g>
       <use style="fill:#262626;stroke:#262626;stroke-width:1.25;" x="327.93875" xlink:href="#mfa1f2e571d" y="171.084205"/>
      </g>
     </g>
    </g>
    <g id="xtick_4">
     <g id="line2d_4">
      <g>
       <use style="fill:#262626;stroke:#262626;stroke-width:1.25;" x="449.58875" xlink:href="#mfa1f2e571d" y="171.084205"/>
      </g>
     </g>
    </g>
    <g id="xtick_5">
     <g id="line2d_5">
      <g>
       <use style="fill:#262626;stroke:#262626;stroke-width:1.25;" x="571.23875" xlink:href="#mfa1f2e571d" y="171.084205"/>
      </g>
     </g>
    </g>
    <g id="xtick_6">
     <g id="line2d_6">
      <g>
       <use style="fill:#262626;stroke:#262626;stroke-width:1.25;" x="692.88875" xlink:href="#mfa1f2e571d" y="171.084205"/>
      </g>
     </g>
    </g>
   </g>
   <g id="matplotlib.axis_2">
    <g id="ytick_1">
     <g id="line2d_7">
      <defs>
       <path d="M 0 0 
L -6 0 
" id="m34f28b45ad" style="stroke:#262626;stroke-width:1.25;"/>
      </defs>
      <g>
       <use style="fill:#262626;stroke:#262626;stroke-width:1.25;" x="60.30875" xlink:href="#m34f28b45ad" y="171.084205"/>
      </g>
     </g>
     <g id="text_1">
      <!-- 0 -->
      <defs>
       <path d="M 31.78125 66.40625 
Q 24.171875 66.40625 20.328125 58.90625 
Q 16.5 51.421875 16.5 36.375 
Q 16.5 21.390625 20.328125 13.890625 
Q 24.171875 6.390625 31.78125 6.390625 
Q 39.453125 6.390625 43.28125 13.890625 
Q 47.125 21.390625 47.125 36.375 
Q 47.125 51.421875 43.28125 58.90625 
Q 39.453125 66.40625 31.78125 66.40625 
z
M 31.78125 74.21875 
Q 44.046875 74.21875 50.515625 64.515625 
Q 56.984375 54.828125 56.984375 36.375 
Q 56.984375 17.96875 50.515625 8.265625 
Q 44.046875 -1.421875 31.78125 -1.421875 
Q 19.53125 -1.421875 13.0625 8.265625 
Q 6.59375 17.96875 6.59375 36.375 
Q 6.59375 54.828125 13.0625 64.515625 
Q 19.53125 74.21875 31.78125 74.21875 
z
" id="DejaVuSans-48"/>
      </defs>
      <g style="fill:#262626;" transform="translate(43.81 175.263345)scale(0.11 -0.11)">
       <use xlink:href="#DejaVuSans-48"/>
      </g>
     </g>
    </g>
    <g id="ytick_2">
     <g id="line2d_8">
      <g>
       <use style="fill:#262626;stroke:#262626;stroke-width:1.25;" x="60.30875" xlink:href="#m34f28b45ad" y="141.290683"/>
      </g>
     </g>
     <g id="text_2">
      <!-- 500 -->
      <defs>
       <path d="M 10.796875 72.90625 
L 49.515625 72.90625 
L 49.515625 64.59375 
L 19.828125 64.59375 
L 19.828125 46.734375 
Q 21.96875 47.46875 24.109375 47.828125 
Q 26.265625 48.1875 28.421875 48.1875 
Q 40.625 48.1875 47.75 41.5 
Q 54.890625 34.8125 54.890625 23.390625 
Q 54.890625 11.625 47.5625 5.09375 
Q 40.234375 -1.421875 26.90625 -1.421875 
Q 22.3125 -1.421875 17.546875 -0.640625 
Q 12.796875 0.140625 7.71875 1.703125 
L 7.71875 11.625 
Q 12.109375 9.234375 16.796875 8.0625 
Q 21.484375 6.890625 26.703125 6.890625 
Q 35.15625 6.890625 40.078125 11.328125 
Q 45.015625 15.765625 45.015625 23.390625 
Q 45.015625 31 40.078125 35.4375 
Q 35.15625 39.890625 26.703125 39.890625 
Q 22.75 39.890625 18.8125 39.015625 
Q 14.890625 38.140625 10.796875 36.28125 
z
" id="DejaVuSans-53"/>
      </defs>
      <g style="fill:#262626;" transform="translate(29.8125 145.469823)scale(0.11 -0.11)">
       <use xlink:href="#DejaVuSans-53"/>
       <use x="63.623047" xlink:href="#DejaVuSans-48"/>
       <use x="127.246094" xlink:href="#DejaVuSans-48"/>
      </g>
     </g>
    </g>
    <g id="ytick_3">
     <g id="line2d_9">
      <g>
       <use style="fill:#262626;stroke:#262626;stroke-width:1.25;" x="60.30875" xlink:href="#m34f28b45ad" y="111.497161"/>
      </g>
     </g>
     <g id="text_3">
      <!-- 1000 -->
      <defs>
       <path d="M 12.40625 8.296875 
L 28.515625 8.296875 
L 28.515625 63.921875 
L 10.984375 60.40625 
L 10.984375 69.390625 
L 28.421875 72.90625 
L 38.28125 72.90625 
L 38.28125 8.296875 
L 54.390625 8.296875 
L 54.390625 0 
L 12.40625 0 
z
" id="DejaVuSans-49"/>
      </defs>
      <g style="fill:#262626;" transform="translate(22.81375 115.676301)scale(0.11 -0.11)">
       <use xlink:href="#DejaVuSans-49"/>
       <use x="63.623047" xlink:href="#DejaVuSans-48"/>
       <use x="127.246094" xlink:href="#DejaVuSans-48"/>
       <use x="190.869141" xlink:href="#DejaVuSans-48"/>
      </g>
     </g>
    </g>
    <g id="ytick_4">
     <g id="line2d_10">
      <g>
       <use style="fill:#262626;stroke:#262626;stroke-width:1.25;" x="60.30875" xlink:href="#m34f28b45ad" y="81.703639"/>
      </g>
     </g>
     <g id="text_4">
      <!-- 1500 -->
      <g style="fill:#262626;" transform="translate(22.81375 85.88278)scale(0.11 -0.11)">
       <use xlink:href="#DejaVuSans-49"/>
       <use x="63.623047" xlink:href="#DejaVuSans-53"/>
       <use x="127.246094" xlink:href="#DejaVuSans-48"/>
       <use x="190.869141" xlink:href="#DejaVuSans-48"/>
      </g>
     </g>
    </g>
    <g id="ytick_5">
     <g id="line2d_11">
      <g>
       <use style="fill:#262626;stroke:#262626;stroke-width:1.25;" x="60.30875" xlink:href="#m34f28b45ad" y="51.910117"/>
      </g>
     </g>
     <g id="text_5">
      <!-- 2000 -->
      <defs>
       <path d="M 19.1875 8.296875 
L 53.609375 8.296875 
L 53.609375 0 
L 7.328125 0 
L 7.328125 8.296875 
Q 12.9375 14.109375 22.625 23.890625 
Q 32.328125 33.6875 34.8125 36.53125 
Q 39.546875 41.84375 41.421875 45.53125 
Q 43.3125 49.21875 43.3125 52.78125 
Q 43.3125 58.59375 39.234375 62.25 
Q 35.15625 65.921875 28.609375 65.921875 
Q 23.96875 65.921875 18.8125 64.3125 
Q 13.671875 62.703125 7.8125 59.421875 
L 7.8125 69.390625 
Q 13.765625 71.78125 18.9375 73 
Q 24.125 74.21875 28.421875 74.21875 
Q 39.75 74.21875 46.484375 68.546875 
Q 53.21875 62.890625 53.21875 53.421875 
Q 53.21875 48.921875 51.53125 44.890625 
Q 49.859375 40.875 45.40625 35.40625 
Q 44.1875 33.984375 37.640625 27.21875 
Q 31.109375 20.453125 19.1875 8.296875 
z
" id="DejaVuSans-50"/>
      </defs>
      <g style="fill:#262626;" transform="translate(22.81375 56.089258)scale(0.11 -0.11)">
       <use xlink:href="#DejaVuSans-50"/>
       <use x="63.623047" xlink:href="#DejaVuSans-48"/>
       <use x="127.246094" xlink:href="#DejaVuSans-48"/>
       <use x="190.869141" xlink:href="#DejaVuSans-48"/>
      </g>
     </g>
    </g>
    <g id="text_6">
     <!-- Number of users in age group -->
     <defs>
      <path d="M 9.8125 72.90625 
L 23.09375 72.90625 
L 55.421875 11.921875 
L 55.421875 72.90625 
L 64.984375 72.90625 
L 64.984375 0 
L 51.703125 0 
L 19.390625 60.984375 
L 19.390625 0 
L 9.8125 0 
z
" id="DejaVuSans-78"/>
      <path d="M 8.5 21.578125 
L 8.5 54.6875 
L 17.484375 54.6875 
L 17.484375 21.921875 
Q 17.484375 14.15625 20.5 10.265625 
Q 23.53125 6.390625 29.59375 6.390625 
Q 36.859375 6.390625 41.078125 11.03125 
Q 45.3125 15.671875 45.3125 23.6875 
L 45.3125 54.6875 
L 54.296875 54.6875 
L 54.296875 0 
L 45.3125 0 
L 45.3125 8.40625 
Q 42.046875 3.421875 37.71875 1 
Q 33.40625 -1.421875 27.6875 -1.421875 
Q 18.265625 -1.421875 13.375 4.4375 
Q 8.5 10.296875 8.5 21.578125 
z
M 31.109375 56 
z
" id="DejaVuSans-117"/>
      <path d="M 52 44.1875 
Q 55.375 50.25 60.0625 53.125 
Q 64.75 56 71.09375 56 
Q 79.640625 56 84.28125 50.015625 
Q 88.921875 44.046875 88.921875 33.015625 
L 88.921875 0 
L 79.890625 0 
L 79.890625 32.71875 
Q 79.890625 40.578125 77.09375 44.375 
Q 74.3125 48.1875 68.609375 48.1875 
Q 61.625 48.1875 57.5625 43.546875 
Q 53.515625 38.921875 53.515625 30.90625 
L 53.515625 0 
L 44.484375 0 
L 44.484375 32.71875 
Q 44.484375 40.625 41.703125 44.40625 
Q 38.921875 48.1875 33.109375 48.1875 
Q 26.21875 48.1875 22.15625 43.53125 
Q 18.109375 38.875 18.109375 30.90625 
L 18.109375 0 
L 9.078125 0 
L 9.078125 54.6875 
L 18.109375 54.6875 
L 18.109375 46.1875 
Q 21.1875 51.21875 25.484375 53.609375 
Q 29.78125 56 35.6875 56 
Q 41.65625 56 45.828125 52.96875 
Q 50 49.953125 52 44.1875 
z
" id="DejaVuSans-109"/>
      <path d="M 48.6875 27.296875 
Q 48.6875 37.203125 44.609375 42.84375 
Q 40.53125 48.484375 33.40625 48.484375 
Q 26.265625 48.484375 22.1875 42.84375 
Q 18.109375 37.203125 18.109375 27.296875 
Q 18.109375 17.390625 22.1875 11.75 
Q 26.265625 6.109375 33.40625 6.109375 
Q 40.53125 6.109375 44.609375 11.75 
Q 48.6875 17.390625 48.6875 27.296875 
z
M 18.109375 46.390625 
Q 20.953125 51.265625 25.265625 53.625 
Q 29.59375 56 35.59375 56 
Q 45.5625 56 51.78125 48.09375 
Q 58.015625 40.1875 58.015625 27.296875 
Q 58.015625 14.40625 51.78125 6.484375 
Q 45.5625 -1.421875 35.59375 -1.421875 
Q 29.59375 -1.421875 25.265625 0.953125 
Q 20.953125 3.328125 18.109375 8.203125 
L 18.109375 0 
L 9.078125 0 
L 9.078125 75.984375 
L 18.109375 75.984375 
z
" id="DejaVuSans-98"/>
      <path d="M 56.203125 29.59375 
L 56.203125 25.203125 
L 14.890625 25.203125 
Q 15.484375 15.921875 20.484375 11.0625 
Q 25.484375 6.203125 34.421875 6.203125 
Q 39.59375 6.203125 44.453125 7.46875 
Q 49.3125 8.734375 54.109375 11.28125 
L 54.109375 2.78125 
Q 49.265625 0.734375 44.1875 -0.34375 
Q 39.109375 -1.421875 33.890625 -1.421875 
Q 20.796875 -1.421875 13.15625 6.1875 
Q 5.515625 13.8125 5.515625 26.8125 
Q 5.515625 40.234375 12.765625 48.109375 
Q 20.015625 56 32.328125 56 
Q 43.359375 56 49.78125 48.890625 
Q 56.203125 41.796875 56.203125 29.59375 
z
M 47.21875 32.234375 
Q 47.125 39.59375 43.09375 43.984375 
Q 39.0625 48.390625 32.421875 48.390625 
Q 24.90625 48.390625 20.390625 44.140625 
Q 15.875 39.890625 15.1875 32.171875 
z
" id="DejaVuSans-101"/>
      <path d="M 41.109375 46.296875 
Q 39.59375 47.171875 37.8125 47.578125 
Q 36.03125 48 33.890625 48 
Q 26.265625 48 22.1875 43.046875 
Q 18.109375 38.09375 18.109375 28.8125 
L 18.109375 0 
L 9.078125 0 
L 9.078125 54.6875 
L 18.109375 54.6875 
L 18.109375 46.1875 
Q 20.953125 51.171875 25.484375 53.578125 
Q 30.03125 56 36.53125 56 
Q 37.453125 56 38.578125 55.875 
Q 39.703125 55.765625 41.0625 55.515625 
z
" id="DejaVuSans-114"/>
      <path id="DejaVuSans-32"/>
      <path d="M 30.609375 48.390625 
Q 23.390625 48.390625 19.1875 42.75 
Q 14.984375 37.109375 14.984375 27.296875 
Q 14.984375 17.484375 19.15625 11.84375 
Q 23.34375 6.203125 30.609375 6.203125 
Q 37.796875 6.203125 41.984375 11.859375 
Q 46.1875 17.53125 46.1875 27.296875 
Q 46.1875 37.015625 41.984375 42.703125 
Q 37.796875 48.390625 30.609375 48.390625 
z
M 30.609375 56 
Q 42.328125 56 49.015625 48.375 
Q 55.71875 40.765625 55.71875 27.296875 
Q 55.71875 13.875 49.015625 6.21875 
Q 42.328125 -1.421875 30.609375 -1.421875 
Q 18.84375 -1.421875 12.171875 6.21875 
Q 5.515625 13.875 5.515625 27.296875 
Q 5.515625 40.765625 12.171875 48.375 
Q 18.84375 56 30.609375 56 
z
" id="DejaVuSans-111"/>
      <path d="M 37.109375 75.984375 
L 37.109375 68.5 
L 28.515625 68.5 
Q 23.6875 68.5 21.796875 66.546875 
Q 19.921875 64.59375 19.921875 59.515625 
L 19.921875 54.6875 
L 34.71875 54.6875 
L 34.71875 47.703125 
L 19.921875 47.703125 
L 19.921875 0 
L 10.890625 0 
L 10.890625 47.703125 
L 2.296875 47.703125 
L 2.296875 54.6875 
L 10.890625 54.6875 
L 10.890625 58.5 
Q 10.890625 67.625 15.140625 71.796875 
Q 19.390625 75.984375 28.609375 75.984375 
z
" id="DejaVuSans-102"/>
      <path d="M 44.28125 53.078125 
L 44.28125 44.578125 
Q 40.484375 46.53125 36.375 47.5 
Q 32.28125 48.484375 27.875 48.484375 
Q 21.1875 48.484375 17.84375 46.4375 
Q 14.5 44.390625 14.5 40.28125 
Q 14.5 37.15625 16.890625 35.375 
Q 19.28125 33.59375 26.515625 31.984375 
L 29.59375 31.296875 
Q 39.15625 29.25 43.1875 25.515625 
Q 47.21875 21.78125 47.21875 15.09375 
Q 47.21875 7.46875 41.1875 3.015625 
Q 35.15625 -1.421875 24.609375 -1.421875 
Q 20.21875 -1.421875 15.453125 -0.5625 
Q 10.6875 0.296875 5.421875 2 
L 5.421875 11.28125 
Q 10.40625 8.6875 15.234375 7.390625 
Q 20.0625 6.109375 24.8125 6.109375 
Q 31.15625 6.109375 34.5625 8.28125 
Q 37.984375 10.453125 37.984375 14.40625 
Q 37.984375 18.0625 35.515625 20.015625 
Q 33.0625 21.96875 24.703125 23.78125 
L 21.578125 24.515625 
Q 13.234375 26.265625 9.515625 29.90625 
Q 5.8125 33.546875 5.8125 39.890625 
Q 5.8125 47.609375 11.28125 51.796875 
Q 16.75 56 26.8125 56 
Q 31.78125 56 36.171875 55.265625 
Q 40.578125 54.546875 44.28125 53.078125 
z
" id="DejaVuSans-115"/>
      <path d="M 9.421875 54.6875 
L 18.40625 54.6875 
L 18.40625 0 
L 9.421875 0 
z
M 9.421875 75.984375 
L 18.40625 75.984375 
L 18.40625 64.59375 
L 9.421875 64.59375 
z
" id="DejaVuSans-105"/>
      <path d="M 54.890625 33.015625 
L 54.890625 0 
L 45.90625 0 
L 45.90625 32.71875 
Q 45.90625 40.484375 42.875 44.328125 
Q 39.84375 48.1875 33.796875 48.1875 
Q 26.515625 48.1875 22.3125 43.546875 
Q 18.109375 38.921875 18.109375 30.90625 
L 18.109375 0 
L 9.078125 0 
L 9.078125 54.6875 
L 18.109375 54.6875 
L 18.109375 46.1875 
Q 21.34375 51.125 25.703125 53.5625 
Q 30.078125 56 35.796875 56 
Q 45.21875 56 50.046875 50.171875 
Q 54.890625 44.34375 54.890625 33.015625 
z
" id="DejaVuSans-110"/>
      <path d="M 34.28125 27.484375 
Q 23.390625 27.484375 19.1875 25 
Q 14.984375 22.515625 14.984375 16.5 
Q 14.984375 11.71875 18.140625 8.90625 
Q 21.296875 6.109375 26.703125 6.109375 
Q 34.1875 6.109375 38.703125 11.40625 
Q 43.21875 16.703125 43.21875 25.484375 
L 43.21875 27.484375 
z
M 52.203125 31.203125 
L 52.203125 0 
L 43.21875 0 
L 43.21875 8.296875 
Q 40.140625 3.328125 35.546875 0.953125 
Q 30.953125 -1.421875 24.3125 -1.421875 
Q 15.921875 -1.421875 10.953125 3.296875 
Q 6 8.015625 6 15.921875 
Q 6 25.140625 12.171875 29.828125 
Q 18.359375 34.515625 30.609375 34.515625 
L 43.21875 34.515625 
L 43.21875 35.40625 
Q 43.21875 41.609375 39.140625 45 
Q 35.0625 48.390625 27.6875 48.390625 
Q 23 48.390625 18.546875 47.265625 
Q 14.109375 46.140625 10.015625 43.890625 
L 10.015625 52.203125 
Q 14.9375 54.109375 19.578125 55.046875 
Q 24.21875 56 28.609375 56 
Q 40.484375 56 46.34375 49.84375 
Q 52.203125 43.703125 52.203125 31.203125 
z
" id="DejaVuSans-97"/>
      <path d="M 45.40625 27.984375 
Q 45.40625 37.75 41.375 43.109375 
Q 37.359375 48.484375 30.078125 48.484375 
Q 22.859375 48.484375 18.828125 43.109375 
Q 14.796875 37.75 14.796875 27.984375 
Q 14.796875 18.265625 18.828125 12.890625 
Q 22.859375 7.515625 30.078125 7.515625 
Q 37.359375 7.515625 41.375 12.890625 
Q 45.40625 18.265625 45.40625 27.984375 
z
M 54.390625 6.78125 
Q 54.390625 -7.171875 48.1875 -13.984375 
Q 42 -20.796875 29.203125 -20.796875 
Q 24.46875 -20.796875 20.265625 -20.09375 
Q 16.0625 -19.390625 12.109375 -17.921875 
L 12.109375 -9.1875 
Q 16.0625 -11.328125 19.921875 -12.34375 
Q 23.78125 -13.375 27.78125 -13.375 
Q 36.625 -13.375 41.015625 -8.765625 
Q 45.40625 -4.15625 45.40625 5.171875 
L 45.40625 9.625 
Q 42.625 4.78125 38.28125 2.390625 
Q 33.9375 0 27.875 0 
Q 17.828125 0 11.671875 7.65625 
Q 5.515625 15.328125 5.515625 27.984375 
Q 5.515625 40.671875 11.671875 48.328125 
Q 17.828125 56 27.875 56 
Q 33.9375 56 38.28125 53.609375 
Q 42.625 51.21875 45.40625 46.390625 
L 45.40625 54.6875 
L 54.390625 54.6875 
z
" id="DejaVuSans-103"/>
      <path d="M 18.109375 8.203125 
L 18.109375 -20.796875 
L 9.078125 -20.796875 
L 9.078125 54.6875 
L 18.109375 54.6875 
L 18.109375 46.390625 
Q 20.953125 51.265625 25.265625 53.625 
Q 29.59375 56 35.59375 56 
Q 45.5625 56 51.78125 48.09375 
Q 58.015625 40.1875 58.015625 27.296875 
Q 58.015625 14.40625 51.78125 6.484375 
Q 45.5625 -1.421875 35.59375 -1.421875 
Q 29.59375 -1.421875 25.265625 0.953125 
Q 20.953125 3.328125 18.109375 8.203125 
z
M 48.6875 27.296875 
Q 48.6875 37.203125 44.609375 42.84375 
Q 40.53125 48.484375 33.40625 48.484375 
Q 26.265625 48.484375 22.1875 42.84375 
Q 18.109375 37.203125 18.109375 27.296875 
Q 18.109375 17.390625 22.1875 11.75 
Q 26.265625 6.109375 33.40625 6.109375 
Q 40.53125 6.109375 44.609375 11.75 
Q 48.6875 17.390625 48.6875 27.296875 
z
" id="DejaVuSans-112"/>
     </defs>
     <g style="fill:#262626;" transform="translate(16.318125 186.87375)rotate(-90)scale(0.12 -0.12)">
      <use xlink:href="#DejaVuSans-78"/>
      <use x="74.804688" xlink:href="#DejaVuSans-117"/>
      <use x="138.183594" xlink:href="#DejaVuSans-109"/>
      <use x="235.595703" xlink:href="#DejaVuSans-98"/>
      <use x="299.072266" xlink:href="#DejaVuSans-101"/>
      <use x="360.595703" xlink:href="#DejaVuSans-114"/>
      <use x="401.708984" xlink:href="#DejaVuSans-32"/>
      <use x="433.496094" xlink:href="#DejaVuSans-111"/>
      <use x="494.677734" xlink:href="#DejaVuSans-102"/>
      <use x="529.882812" xlink:href="#DejaVuSans-32"/>
      <use x="561.669922" xlink:href="#DejaVuSans-117"/>
      <use x="625.048828" xlink:href="#DejaVuSans-115"/>
      <use x="677.148438" xlink:href="#DejaVuSans-101"/>
      <use x="738.671875" xlink:href="#DejaVuSans-114"/>
      <use x="779.785156" xlink:href="#DejaVuSans-115"/>
      <use x="831.884766" xlink:href="#DejaVuSans-32"/>
      <use x="863.671875" xlink:href="#DejaVuSans-105"/>
      <use x="891.455078" xlink:href="#DejaVuSans-110"/>
      <use x="954.833984" xlink:href="#DejaVuSans-32"/>
      <use x="986.621094" xlink:href="#DejaVuSans-97"/>
      <use x="1047.900391" xlink:href="#DejaVuSans-103"/>
      <use x="1111.376953" xlink:href="#DejaVuSans-101"/>
      <use x="1172.900391" xlink:href="#DejaVuSans-32"/>
      <use x="1204.6875" xlink:href="#DejaVuSans-103"/>
      <use x="1268.164062" xlink:href="#DejaVuSans-114"/>
      <use x="1309.246094" xlink:href="#DejaVuSans-111"/>
      <use x="1370.427734" xlink:href="#DejaVuSans-117"/>
      <use x="1433.806641" xlink:href="#DejaVuSans-112"/>
     </g>
    </g>
   </g>
   <g id="patch_3">
    <path clip-path="url(#p24aa4dce5f)" d="M 60.30875 171.084205 
L 72.47375 171.084205 
L 72.47375 162.265322 
L 60.30875 162.265322 
z
" style="fill:#55a868;opacity:0.4;stroke:#ffffff;stroke-linejoin:miter;"/>
   </g>
   <g id="patch_4">
    <path clip-path="url(#p24aa4dce5f)" d="M 72.47375 171.084205 
L 84.63875 171.084205 
L 84.63875 151.42048 
L 72.47375 151.42048 
z
" style="fill:#55a868;opacity:0.4;stroke:#ffffff;stroke-linejoin:miter;"/>
   </g>
   <g id="patch_5">
    <path clip-path="url(#p24aa4dce5f)" d="M 84.63875 171.084205 
L 96.80375 171.084205 
L 96.80375 137.894221 
L 84.63875 137.894221 
z
" style="fill:#55a868;opacity:0.4;stroke:#ffffff;stroke-linejoin:miter;"/>
   </g>
   <g id="patch_6">
    <path clip-path="url(#p24aa4dce5f)" d="M 96.80375 171.084205 
L 108.96875 171.084205 
L 108.96875 128.598642 
L 96.80375 128.598642 
z
" style="fill:#55a868;opacity:0.4;stroke:#ffffff;stroke-linejoin:miter;"/>
   </g>
   <g id="patch_7">
    <path clip-path="url(#p24aa4dce5f)" d="M 108.96875 171.084205 
L 121.13375 171.084205 
L 121.13375 105.002173 
L 108.96875 105.002173 
z
" style="fill:#55a868;opacity:0.4;stroke:#ffffff;stroke-linejoin:miter;"/>
   </g>
   <g id="patch_8">
    <path clip-path="url(#p24aa4dce5f)" d="M 121.13375 171.084205 
L 133.29875 171.084205 
L 133.29875 79.081809 
L 121.13375 79.081809 
z
" style="fill:#55a868;opacity:0.4;stroke:#ffffff;stroke-linejoin:miter;"/>
   </g>
   <g id="patch_9">
    <path clip-path="url(#p24aa4dce5f)" d="M 133.29875 171.084205 
L 145.46375 171.084205 
L 145.46375 52.148465 
L 133.29875 52.148465 
z
" style="fill:#55a868;opacity:0.4;stroke:#ffffff;stroke-linejoin:miter;"/>
   </g>
   <g id="patch_10">
    <path clip-path="url(#p24aa4dce5f)" d="M 145.46375 171.084205 
L 157.62875 171.084205 
L 157.62875 41.899494 
L 145.46375 41.899494 
z
" style="fill:#55a868;opacity:0.4;stroke:#ffffff;stroke-linejoin:miter;"/>
   </g>
   <g id="patch_11">
    <path clip-path="url(#p24aa4dce5f)" d="M 157.62875 171.084205 
L 169.79375 171.084205 
L 169.79375 30.041672 
L 157.62875 30.041672 
z
" style="fill:#55a868;opacity:0.4;stroke:#ffffff;stroke-linejoin:miter;"/>
   </g>
   <g id="patch_12">
    <path clip-path="url(#p24aa4dce5f)" d="M 169.79375 171.084205 
L 181.95875 171.084205 
L 181.95875 32.484741 
L 169.79375 32.484741 
z
" style="fill:#55a868;opacity:0.4;stroke:#ffffff;stroke-linejoin:miter;"/>
   </g>
   <g id="patch_13">
    <path clip-path="url(#p24aa4dce5f)" d="M 181.95875 171.084205 
L 194.12375 171.084205 
L 194.12375 37.54964 
L 181.95875 37.54964 
z
" style="fill:#55a868;opacity:0.4;stroke:#ffffff;stroke-linejoin:miter;"/>
   </g>
   <g id="patch_14">
    <path clip-path="url(#p24aa4dce5f)" d="M 194.12375 171.084205 
L 206.28875 171.084205 
L 206.28875 48.692417 
L 194.12375 48.692417 
z
" style="fill:#55a868;opacity:0.4;stroke:#ffffff;stroke-linejoin:miter;"/>
   </g>
   <g id="patch_15">
    <path clip-path="url(#p24aa4dce5f)" d="M 206.28875 171.084205 
L 218.45375 171.084205 
L 218.45375 53.578554 
L 206.28875 53.578554 
z
" style="fill:#55a868;opacity:0.4;stroke:#ffffff;stroke-linejoin:miter;"/>
   </g>
   <g id="patch_16">
    <path clip-path="url(#p24aa4dce5f)" d="M 218.45375 171.084205 
L 230.61875 171.084205 
L 230.61875 71.275906 
L 218.45375 71.275906 
z
" style="fill:#55a868;opacity:0.4;stroke:#ffffff;stroke-linejoin:miter;"/>
   </g>
   <g id="patch_17">
    <path clip-path="url(#p24aa4dce5f)" d="M 230.61875 171.084205 
L 242.78375 171.084205 
L 242.78375 80.035202 
L 230.61875 80.035202 
z
" style="fill:#55a868;opacity:0.4;stroke:#ffffff;stroke-linejoin:miter;"/>
   </g>
   <g id="patch_18">
    <path clip-path="url(#p24aa4dce5f)" d="M 242.78375 171.084205 
L 254.94875 171.084205 
L 254.94875 92.786829 
L 242.78375 92.786829 
z
" style="fill:#55a868;opacity:0.4;stroke:#ffffff;stroke-linejoin:miter;"/>
   </g>
   <g id="patch_19">
    <path clip-path="url(#p24aa4dce5f)" d="M 254.94875 171.084205 
L 267.11375 171.084205 
L 267.11375 103.810432 
L 254.94875 103.810432 
z
" style="fill:#55a868;opacity:0.4;stroke:#ffffff;stroke-linejoin:miter;"/>
   </g>
   <g id="patch_20">
    <path clip-path="url(#p24aa4dce5f)" d="M 267.11375 171.084205 
L 279.27875 171.084205 
L 279.27875 110.067072 
L 267.11375 110.067072 
z
" style="fill:#55a868;opacity:0.4;stroke:#ffffff;stroke-linejoin:miter;"/>
   </g>
   <g id="patch_21">
    <path clip-path="url(#p24aa4dce5f)" d="M 279.27875 171.084205 
L 291.44375 171.084205 
L 291.44375 116.264124 
L 279.27875 116.264124 
z
" style="fill:#55a868;opacity:0.4;stroke:#ffffff;stroke-linejoin:miter;"/>
   </g>
   <g id="patch_22">
    <path clip-path="url(#p24aa4dce5f)" d="M 291.44375 171.084205 
L 303.60875 171.084205 
L 303.60875 120.256456 
L 291.44375 120.256456 
z
" style="fill:#55a868;opacity:0.4;stroke:#ffffff;stroke-linejoin:miter;"/>
   </g>
   <g id="patch_23">
    <path clip-path="url(#p24aa4dce5f)" d="M 303.60875 171.084205 
L 315.77375 171.084205 
L 315.77375 123.772092 
L 303.60875 123.772092 
z
" style="fill:#55a868;opacity:0.4;stroke:#ffffff;stroke-linejoin:miter;"/>
   </g>
   <g id="patch_24">
    <path clip-path="url(#p24aa4dce5f)" d="M 315.77375 171.084205 
L 327.93875 171.084205 
L 327.93875 129.552035 
L 315.77375 129.552035 
z
" style="fill:#55a868;opacity:0.4;stroke:#ffffff;stroke-linejoin:miter;"/>
   </g>
   <g id="patch_25">
    <path clip-path="url(#p24aa4dce5f)" d="M 327.93875 171.084205 
L 340.10375 171.084205 
L 340.10375 134.378586 
L 327.93875 134.378586 
z
" style="fill:#55a868;opacity:0.4;stroke:#ffffff;stroke-linejoin:miter;"/>
   </g>
   <g id="patch_26">
    <path clip-path="url(#p24aa4dce5f)" d="M 340.10375 171.084205 
L 352.26875 171.084205 
L 352.26875 135.153217 
L 340.10375 135.153217 
z
" style="fill:#55a868;opacity:0.4;stroke:#ffffff;stroke-linejoin:miter;"/>
   </g>
   <g id="patch_27">
    <path clip-path="url(#p24aa4dce5f)" d="M 352.26875 171.084205 
L 364.43375 171.084205 
L 364.43375 135.391565 
L 352.26875 135.391565 
z
" style="fill:#55a868;opacity:0.4;stroke:#ffffff;stroke-linejoin:miter;"/>
   </g>
   <g id="patch_28">
    <path clip-path="url(#p24aa4dce5f)" d="M 364.43375 171.084205 
L 376.59875 171.084205 
L 376.59875 141.409857 
L 364.43375 141.409857 
z
" style="fill:#55a868;opacity:0.4;stroke:#ffffff;stroke-linejoin:miter;"/>
   </g>
   <g id="patch_29">
    <path clip-path="url(#p24aa4dce5f)" d="M 376.59875 171.084205 
L 388.76375 171.084205 
L 388.76375 145.640537 
L 376.59875 145.640537 
z
" style="fill:#55a868;opacity:0.4;stroke:#ffffff;stroke-linejoin:miter;"/>
   </g>
   <g id="patch_30">
    <path clip-path="url(#p24aa4dce5f)" d="M 388.76375 171.084205 
L 400.92875 171.084205 
L 400.92875 147.726083 
L 388.76375 147.726083 
z
" style="fill:#55a868;opacity:0.4;stroke:#ffffff;stroke-linejoin:miter;"/>
   </g>
   <g id="patch_31">
    <path clip-path="url(#p24aa4dce5f)" d="M 400.92875 171.084205 
L 413.09375 171.084205 
L 413.09375 150.82461 
L 400.92875 150.82461 
z
" style="fill:#55a868;opacity:0.4;stroke:#ffffff;stroke-linejoin:miter;"/>
   </g>
   <g id="patch_32">
    <path clip-path="url(#p24aa4dce5f)" d="M 413.09375 171.084205 
L 425.25875 171.084205 
L 425.25875 152.790982 
L 413.09375 152.790982 
z
" style="fill:#55a868;opacity:0.4;stroke:#ffffff;stroke-linejoin:miter;"/>
   </g>
   <g id="patch_33">
    <path clip-path="url(#p24aa4dce5f)" d="M 425.25875 171.084205 
L 437.42375 171.084205 
L 437.42375 153.625201 
L 425.25875 153.625201 
z
" style="fill:#55a868;opacity:0.4;stroke:#ffffff;stroke-linejoin:miter;"/>
   </g>
   <g id="patch_34">
    <path clip-path="url(#p24aa4dce5f)" d="M 437.42375 171.084205 
L 449.58875 171.084205 
L 449.58875 155.949095 
L 437.42375 155.949095 
z
" style="fill:#55a868;opacity:0.4;stroke:#ffffff;stroke-linejoin:miter;"/>
   </g>
   <g id="patch_35">
    <path clip-path="url(#p24aa4dce5f)" d="M 449.58875 171.084205 
L 461.75375 171.084205 
L 461.75375 156.723727 
L 449.58875 156.723727 
z
" style="fill:#55a868;opacity:0.4;stroke:#ffffff;stroke-linejoin:miter;"/>
   </g>
   <g id="patch_36">
    <path clip-path="url(#p24aa4dce5f)" d="M 461.75375 171.084205 
L 473.91875 171.084205 
L 473.91875 159.405144 
L 461.75375 159.405144 
z
" style="fill:#55a868;opacity:0.4;stroke:#ffffff;stroke-linejoin:miter;"/>
   </g>
   <g id="patch_37">
    <path clip-path="url(#p24aa4dce5f)" d="M 473.91875 171.084205 
L 486.08375 171.084205 
L 486.08375 160.358537 
L 473.91875 160.358537 
z
" style="fill:#55a868;opacity:0.4;stroke:#ffffff;stroke-linejoin:miter;"/>
   </g>
   <g id="patch_38">
    <path clip-path="url(#p24aa4dce5f)" d="M 486.08375 171.084205 
L 498.24875 171.084205 
L 498.24875 163.457063 
L 486.08375 163.457063 
z
" style="fill:#55a868;opacity:0.4;stroke:#ffffff;stroke-linejoin:miter;"/>
   </g>
   <g id="patch_39">
    <path clip-path="url(#p24aa4dce5f)" d="M 498.24875 171.084205 
L 510.41375 171.084205 
L 510.41375 161.788626 
L 498.24875 161.788626 
z
" style="fill:#55a868;opacity:0.4;stroke:#ffffff;stroke-linejoin:miter;"/>
   </g>
   <g id="patch_40">
    <path clip-path="url(#p24aa4dce5f)" d="M 510.41375 171.084205 
L 522.57875 171.084205 
L 522.57875 163.576237 
L 510.41375 163.576237 
z
" style="fill:#55a868;opacity:0.4;stroke:#ffffff;stroke-linejoin:miter;"/>
   </g>
   <g id="patch_41">
    <path clip-path="url(#p24aa4dce5f)" d="M 522.57875 171.084205 
L 534.74375 171.084205 
L 534.74375 162.980367 
L 522.57875 162.980367 
z
" style="fill:#55a868;opacity:0.4;stroke:#ffffff;stroke-linejoin:miter;"/>
   </g>
   <g id="patch_42">
    <path clip-path="url(#p24aa4dce5f)" d="M 534.74375 171.084205 
L 546.90875 171.084205 
L 546.90875 162.980367 
L 534.74375 162.980367 
z
" style="fill:#55a868;opacity:0.4;stroke:#ffffff;stroke-linejoin:miter;"/>
   </g>
   <g id="patch_43">
    <path clip-path="url(#p24aa4dce5f)" d="M 546.90875 171.084205 
L 559.07375 171.084205 
L 559.07375 165.185087 
L 546.90875 165.185087 
z
" style="fill:#55a868;opacity:0.4;stroke:#ffffff;stroke-linejoin:miter;"/>
   </g>
   <g id="patch_44">
    <path clip-path="url(#p24aa4dce5f)" d="M 559.07375 171.084205 
L 571.23875 171.084205 
L 571.23875 164.470043 
L 559.07375 164.470043 
z
" style="fill:#55a868;opacity:0.4;stroke:#ffffff;stroke-linejoin:miter;"/>
   </g>
   <g id="patch_45">
    <path clip-path="url(#p24aa4dce5f)" d="M 571.23875 171.084205 
L 583.40375 171.084205 
L 583.40375 165.780958 
L 571.23875 165.780958 
z
" style="fill:#55a868;opacity:0.4;stroke:#ffffff;stroke-linejoin:miter;"/>
   </g>
   <g id="patch_46">
    <path clip-path="url(#p24aa4dce5f)" d="M 583.40375 171.084205 
L 595.56875 171.084205 
L 595.56875 166.376828 
L 583.40375 166.376828 
z
" style="fill:#55a868;opacity:0.4;stroke:#ffffff;stroke-linejoin:miter;"/>
   </g>
   <g id="patch_47">
    <path clip-path="url(#p24aa4dce5f)" d="M 595.56875 171.084205 
L 607.73375 171.084205 
L 607.73375 166.436415 
L 595.56875 166.436415 
z
" style="fill:#55a868;opacity:0.4;stroke:#ffffff;stroke-linejoin:miter;"/>
   </g>
   <g id="patch_48">
    <path clip-path="url(#p24aa4dce5f)" d="M 607.73375 171.084205 
L 619.89875 171.084205 
L 619.89875 167.270634 
L 607.73375 167.270634 
z
" style="fill:#55a868;opacity:0.4;stroke:#ffffff;stroke-linejoin:miter;"/>
   </g>
   <g id="patch_49">
    <path clip-path="url(#p24aa4dce5f)" d="M 619.89875 171.084205 
L 632.06375 171.084205 
L 632.06375 168.104852 
L 619.89875 168.104852 
z
" style="fill:#55a868;opacity:0.4;stroke:#ffffff;stroke-linejoin:miter;"/>
   </g>
   <g id="patch_50">
    <path clip-path="url(#p24aa4dce5f)" d="M 632.06375 171.084205 
L 644.22875 171.084205 
L 644.22875 168.164439 
L 632.06375 168.164439 
z
" style="fill:#55a868;opacity:0.4;stroke:#ffffff;stroke-linejoin:miter;"/>
   </g>
   <g id="patch_51">
    <path clip-path="url(#p24aa4dce5f)" d="M 644.22875 171.084205 
L 656.39375 171.084205 
L 656.39375 168.521962 
L 644.22875 168.521962 
z
" style="fill:#55a868;opacity:0.4;stroke:#ffffff;stroke-linejoin:miter;"/>
   </g>
   <g id="patch_52">
    <path clip-path="url(#p24aa4dce5f)" d="M 656.39375 171.084205 
L 668.55875 171.084205 
L 668.55875 167.568569 
L 656.39375 167.568569 
z
" style="fill:#55a868;opacity:0.4;stroke:#ffffff;stroke-linejoin:miter;"/>
   </g>
   <g id="patch_53">
    <path clip-path="url(#p24aa4dce5f)" d="M 60.30875 171.084205 
L 72.47375 171.084205 
L 72.47375 161.490691 
L 60.30875 161.490691 
z
" style="fill:#4c72b0;opacity:0.4;stroke:#ffffff;stroke-linejoin:miter;"/>
   </g>
   <g id="patch_54">
    <path clip-path="url(#p24aa4dce5f)" d="M 72.47375 171.084205 
L 84.63875 171.084205 
L 84.63875 154.340245 
L 72.47375 154.340245 
z
" style="fill:#4c72b0;opacity:0.4;stroke:#ffffff;stroke-linejoin:miter;"/>
   </g>
   <g id="patch_55">
    <path clip-path="url(#p24aa4dce5f)" d="M 84.63875 171.084205 
L 96.80375 171.084205 
L 96.80375 147.487735 
L 84.63875 147.487735 
z
" style="fill:#4c72b0;opacity:0.4;stroke:#ffffff;stroke-linejoin:miter;"/>
   </g>
   <g id="patch_56">
    <path clip-path="url(#p24aa4dce5f)" d="M 96.80375 171.084205 
L 108.96875 171.084205 
L 108.96875 137.179177 
L 96.80375 137.179177 
z
" style="fill:#4c72b0;opacity:0.4;stroke:#ffffff;stroke-linejoin:miter;"/>
   </g>
   <g id="patch_57">
    <path clip-path="url(#p24aa4dce5f)" d="M 108.96875 171.084205 
L 121.13375 171.084205 
L 121.13375 121.924893 
L 108.96875 121.924893 
z
" style="fill:#4c72b0;opacity:0.4;stroke:#ffffff;stroke-linejoin:miter;"/>
   </g>
   <g id="patch_58">
    <path clip-path="url(#p24aa4dce5f)" d="M 121.13375 171.084205 
L 133.29875 171.084205 
L 133.29875 108.636983 
L 121.13375 108.636983 
z
" style="fill:#4c72b0;opacity:0.4;stroke:#ffffff;stroke-linejoin:miter;"/>
   </g>
   <g id="patch_59">
    <path clip-path="url(#p24aa4dce5f)" d="M 133.29875 171.084205 
L 145.46375 171.084205 
L 145.46375 96.838748 
L 133.29875 96.838748 
z
" style="fill:#4c72b0;opacity:0.4;stroke:#ffffff;stroke-linejoin:miter;"/>
   </g>
   <g id="patch_60">
    <path clip-path="url(#p24aa4dce5f)" d="M 145.46375 171.084205 
L 157.62875 171.084205 
L 157.62875 89.867064 
L 145.46375 89.867064 
z
" style="fill:#4c72b0;opacity:0.4;stroke:#ffffff;stroke-linejoin:miter;"/>
   </g>
   <g id="patch_61">
    <path clip-path="url(#p24aa4dce5f)" d="M 157.62875 171.084205 
L 169.79375 171.084205 
L 169.79375 90.224586 
L 157.62875 90.224586 
z
" style="fill:#4c72b0;opacity:0.4;stroke:#ffffff;stroke-linejoin:miter;"/>
   </g>
   <g id="patch_62">
    <path clip-path="url(#p24aa4dce5f)" d="M 169.79375 171.084205 
L 181.95875 171.084205 
L 181.95875 90.105412 
L 169.79375 90.105412 
z
" style="fill:#4c72b0;opacity:0.4;stroke:#ffffff;stroke-linejoin:miter;"/>
   </g>
   <g id="patch_63">
    <path clip-path="url(#p24aa4dce5f)" d="M 181.95875 171.084205 
L 194.12375 171.084205 
L 194.12375 91.118392 
L 181.95875 91.118392 
z
" style="fill:#4c72b0;opacity:0.4;stroke:#ffffff;stroke-linejoin:miter;"/>
   </g>
   <g id="patch_64">
    <path clip-path="url(#p24aa4dce5f)" d="M 194.12375 171.084205 
L 206.28875 171.084205 
L 206.28875 97.136683 
L 194.12375 97.136683 
z
" style="fill:#4c72b0;opacity:0.4;stroke:#ffffff;stroke-linejoin:miter;"/>
   </g>
   <g id="patch_65">
    <path clip-path="url(#p24aa4dce5f)" d="M 206.28875 171.084205 
L 218.45375 171.084205 
L 218.45375 100.950254 
L 206.28875 100.950254 
z
" style="fill:#4c72b0;opacity:0.4;stroke:#ffffff;stroke-linejoin:miter;"/>
   </g>
   <g id="patch_66">
    <path clip-path="url(#p24aa4dce5f)" d="M 218.45375 171.084205 
L 230.61875 171.084205 
L 230.61875 107.921938 
L 218.45375 107.921938 
z
" style="fill:#4c72b0;opacity:0.4;stroke:#ffffff;stroke-linejoin:miter;"/>
   </g>
   <g id="patch_67">
    <path clip-path="url(#p24aa4dce5f)" d="M 230.61875 171.084205 
L 242.78375 171.084205 
L 242.78375 107.981525 
L 230.61875 107.981525 
z
" style="fill:#4c72b0;opacity:0.4;stroke:#ffffff;stroke-linejoin:miter;"/>
   </g>
   <g id="patch_68">
    <path clip-path="url(#p24aa4dce5f)" d="M 242.78375 171.084205 
L 254.94875 171.084205 
L 254.94875 117.932562 
L 242.78375 117.932562 
z
" style="fill:#4c72b0;opacity:0.4;stroke:#ffffff;stroke-linejoin:miter;"/>
   </g>
   <g id="patch_69">
    <path clip-path="url(#p24aa4dce5f)" d="M 254.94875 171.084205 
L 267.11375 171.084205 
L 267.11375 125.02342 
L 254.94875 125.02342 
z
" style="fill:#4c72b0;opacity:0.4;stroke:#ffffff;stroke-linejoin:miter;"/>
   </g>
   <g id="patch_70">
    <path clip-path="url(#p24aa4dce5f)" d="M 267.11375 171.084205 
L 279.27875 171.084205 
L 279.27875 127.526076 
L 267.11375 127.526076 
z
" style="fill:#4c72b0;opacity:0.4;stroke:#ffffff;stroke-linejoin:miter;"/>
   </g>
   <g id="patch_71">
    <path clip-path="url(#p24aa4dce5f)" d="M 279.27875 171.084205 
L 291.44375 171.084205 
L 291.44375 131.577995 
L 279.27875 131.577995 
z
" style="fill:#4c72b0;opacity:0.4;stroke:#ffffff;stroke-linejoin:miter;"/>
   </g>
   <g id="patch_72">
    <path clip-path="url(#p24aa4dce5f)" d="M 291.44375 171.084205 
L 303.60875 171.084205 
L 303.60875 136.881241 
L 291.44375 136.881241 
z
" style="fill:#4c72b0;opacity:0.4;stroke:#ffffff;stroke-linejoin:miter;"/>
   </g>
   <g id="patch_73">
    <path clip-path="url(#p24aa4dce5f)" d="M 303.60875 171.084205 
L 315.77375 171.084205 
L 315.77375 139.145549 
L 303.60875 139.145549 
z
" style="fill:#4c72b0;opacity:0.4;stroke:#ffffff;stroke-linejoin:miter;"/>
   </g>
   <g id="patch_74">
    <path clip-path="url(#p24aa4dce5f)" d="M 315.77375 171.084205 
L 327.93875 171.084205 
L 327.93875 142.780359 
L 315.77375 142.780359 
z
" style="fill:#4c72b0;opacity:0.4;stroke:#ffffff;stroke-linejoin:miter;"/>
   </g>
   <g id="patch_75">
    <path clip-path="url(#p24aa4dce5f)" d="M 327.93875 171.084205 
L 340.10375 171.084205 
L 340.10375 146.415168 
L 327.93875 146.415168 
z
" style="fill:#4c72b0;opacity:0.4;stroke:#ffffff;stroke-linejoin:miter;"/>
   </g>
   <g id="patch_76">
    <path clip-path="url(#p24aa4dce5f)" d="M 340.10375 171.084205 
L 352.26875 171.084205 
L 352.26875 148.619889 
L 340.10375 148.619889 
z
" style="fill:#4c72b0;opacity:0.4;stroke:#ffffff;stroke-linejoin:miter;"/>
   </g>
   <g id="patch_77">
    <path clip-path="url(#p24aa4dce5f)" d="M 352.26875 171.084205 
L 364.43375 171.084205 
L 364.43375 142.899533 
L 352.26875 142.899533 
z
" style="fill:#4c72b0;opacity:0.4;stroke:#ffffff;stroke-linejoin:miter;"/>
   </g>
   <g id="patch_78">
    <path clip-path="url(#p24aa4dce5f)" d="M 364.43375 171.084205 
L 376.59875 171.084205 
L 376.59875 149.632869 
L 364.43375 149.632869 
z
" style="fill:#4c72b0;opacity:0.4;stroke:#ffffff;stroke-linejoin:miter;"/>
   </g>
   <g id="patch_79">
    <path clip-path="url(#p24aa4dce5f)" d="M 376.59875 171.084205 
L 388.76375 171.084205 
L 388.76375 154.340245 
L 376.59875 154.340245 
z
" style="fill:#4c72b0;opacity:0.4;stroke:#ffffff;stroke-linejoin:miter;"/>
   </g>
   <g id="patch_80">
    <path clip-path="url(#p24aa4dce5f)" d="M 388.76375 171.084205 
L 400.92875 171.084205 
L 400.92875 156.127857 
L 388.76375 156.127857 
z
" style="fill:#4c72b0;opacity:0.4;stroke:#ffffff;stroke-linejoin:miter;"/>
   </g>
   <g id="patch_81">
    <path clip-path="url(#p24aa4dce5f)" d="M 400.92875 171.084205 
L 413.09375 171.084205 
L 413.09375 156.902488 
L 400.92875 156.902488 
z
" style="fill:#4c72b0;opacity:0.4;stroke:#ffffff;stroke-linejoin:miter;"/>
   </g>
   <g id="patch_82">
    <path clip-path="url(#p24aa4dce5f)" d="M 413.09375 171.084205 
L 425.25875 171.084205 
L 425.25875 157.855881 
L 413.09375 157.855881 
z
" style="fill:#4c72b0;opacity:0.4;stroke:#ffffff;stroke-linejoin:miter;"/>
   </g>
   <g id="patch_83">
    <path clip-path="url(#p24aa4dce5f)" d="M 425.25875 171.084205 
L 437.42375 171.084205 
L 437.42375 159.88184 
L 425.25875 159.88184 
z
" style="fill:#4c72b0;opacity:0.4;stroke:#ffffff;stroke-linejoin:miter;"/>
   </g>
   <g id="patch_84">
    <path clip-path="url(#p24aa4dce5f)" d="M 437.42375 171.084205 
L 449.58875 171.084205 
L 449.58875 158.868861 
L 437.42375 158.868861 
z
" style="fill:#4c72b0;opacity:0.4;stroke:#ffffff;stroke-linejoin:miter;"/>
   </g>
   <g id="patch_85">
    <path clip-path="url(#p24aa4dce5f)" d="M 449.58875 171.084205 
L 461.75375 171.084205 
L 461.75375 159.405144 
L 449.58875 159.405144 
z
" style="fill:#4c72b0;opacity:0.4;stroke:#ffffff;stroke-linejoin:miter;"/>
   </g>
   <g id="patch_86">
    <path clip-path="url(#p24aa4dce5f)" d="M 461.75375 171.084205 
L 473.91875 171.084205 
L 473.91875 161.9078 
L 461.75375 161.9078 
z
" style="fill:#4c72b0;opacity:0.4;stroke:#ffffff;stroke-linejoin:miter;"/>
   </g>
   <g id="patch_87">
    <path clip-path="url(#p24aa4dce5f)" d="M 473.91875 171.084205 
L 486.08375 171.084205 
L 486.08375 161.311929 
L 473.91875 161.311929 
z
" style="fill:#4c72b0;opacity:0.4;stroke:#ffffff;stroke-linejoin:miter;"/>
   </g>
   <g id="patch_88">
    <path clip-path="url(#p24aa4dce5f)" d="M 486.08375 171.084205 
L 498.24875 171.084205 
L 498.24875 163.695411 
L 486.08375 163.695411 
z
" style="fill:#4c72b0;opacity:0.4;stroke:#ffffff;stroke-linejoin:miter;"/>
   </g>
   <g id="patch_89">
    <path clip-path="url(#p24aa4dce5f)" d="M 498.24875 171.084205 
L 510.41375 171.084205 
L 510.41375 164.470043 
L 498.24875 164.470043 
z
" style="fill:#4c72b0;opacity:0.4;stroke:#ffffff;stroke-linejoin:miter;"/>
   </g>
   <g id="patch_90">
    <path clip-path="url(#p24aa4dce5f)" d="M 510.41375 171.084205 
L 522.57875 171.084205 
L 522.57875 162.801605 
L 510.41375 162.801605 
z
" style="fill:#4c72b0;opacity:0.4;stroke:#ffffff;stroke-linejoin:miter;"/>
   </g>
   <g id="patch_91">
    <path clip-path="url(#p24aa4dce5f)" d="M 522.57875 171.084205 
L 534.74375 171.084205 
L 534.74375 163.039954 
L 522.57875 163.039954 
z
" style="fill:#4c72b0;opacity:0.4;stroke:#ffffff;stroke-linejoin:miter;"/>
   </g>
   <g id="patch_92">
    <path clip-path="url(#p24aa4dce5f)" d="M 534.74375 171.084205 
L 546.90875 171.084205 
L 546.90875 163.933759 
L 534.74375 163.933759 
z
" style="fill:#4c72b0;opacity:0.4;stroke:#ffffff;stroke-linejoin:miter;"/>
   </g>
   <g id="patch_93">
    <path clip-path="url(#p24aa4dce5f)" d="M 546.90875 171.084205 
L 559.07375 171.084205 
L 559.07375 165.244674 
L 546.90875 165.244674 
z
" style="fill:#4c72b0;opacity:0.4;stroke:#ffffff;stroke-linejoin:miter;"/>
   </g>
   <g id="patch_94">
    <path clip-path="url(#p24aa4dce5f)" d="M 559.07375 171.084205 
L 571.23875 171.084205 
L 571.23875 164.52963 
L 559.07375 164.52963 
z
" style="fill:#4c72b0;opacity:0.4;stroke:#ffffff;stroke-linejoin:miter;"/>
   </g>
   <g id="patch_95">
    <path clip-path="url(#p24aa4dce5f)" d="M 571.23875 171.084205 
L 583.40375 171.084205 
L 583.40375 164.767978 
L 571.23875 164.767978 
z
" style="fill:#4c72b0;opacity:0.4;stroke:#ffffff;stroke-linejoin:miter;"/>
   </g>
   <g id="patch_96">
    <path clip-path="url(#p24aa4dce5f)" d="M 583.40375 171.084205 
L 595.56875 171.084205 
L 595.56875 165.304261 
L 583.40375 165.304261 
z
" style="fill:#4c72b0;opacity:0.4;stroke:#ffffff;stroke-linejoin:miter;"/>
   </g>
   <g id="patch_97">
    <path clip-path="url(#p24aa4dce5f)" d="M 595.56875 171.084205 
L 607.73375 171.084205 
L 607.73375 165.780958 
L 595.56875 165.780958 
z
" style="fill:#4c72b0;opacity:0.4;stroke:#ffffff;stroke-linejoin:miter;"/>
   </g>
   <g id="patch_98">
    <path clip-path="url(#p24aa4dce5f)" d="M 607.73375 171.084205 
L 619.89875 171.084205 
L 619.89875 166.674763 
L 607.73375 166.674763 
z
" style="fill:#4c72b0;opacity:0.4;stroke:#ffffff;stroke-linejoin:miter;"/>
   </g>
   <g id="patch_99">
    <path clip-path="url(#p24aa4dce5f)" d="M 619.89875 171.084205 
L 632.06375 171.084205 
L 632.06375 167.330221 
L 619.89875 167.330221 
z
" style="fill:#4c72b0;opacity:0.4;stroke:#ffffff;stroke-linejoin:miter;"/>
   </g>
   <g id="patch_100">
    <path clip-path="url(#p24aa4dce5f)" d="M 632.06375 171.084205 
L 644.22875 171.084205 
L 644.22875 167.508982 
L 632.06375 167.508982 
z
" style="fill:#4c72b0;opacity:0.4;stroke:#ffffff;stroke-linejoin:miter;"/>
   </g>
   <g id="patch_101">
    <path clip-path="url(#p24aa4dce5f)" d="M 644.22875 171.084205 
L 656.39375 171.084205 
L 656.39375 167.389808 
L 644.22875 167.389808 
z
" style="fill:#4c72b0;opacity:0.4;stroke:#ffffff;stroke-linejoin:miter;"/>
   </g>
   <g id="patch_102">
    <path clip-path="url(#p24aa4dce5f)" d="M 656.39375 171.084205 
L 668.55875 171.084205 
L 668.55875 167.15146 
L 656.39375 167.15146 
z
" style="fill:#4c72b0;opacity:0.4;stroke:#ffffff;stroke-linejoin:miter;"/>
   </g>
   <g id="patch_103">
    <path d="M 60.30875 171.084205 
L 60.30875 22.989545 
" style="fill:none;stroke:#262626;stroke-linecap:square;stroke-linejoin:miter;stroke-width:1.25;"/>
   </g>
   <g id="patch_104">
    <path d="M 60.30875 171.084205 
L 692.88875 171.084205 
" style="fill:none;stroke:#262626;stroke-linecap:square;stroke-linejoin:miter;stroke-width:1.25;"/>
   </g>
   <g id="legend_1">
    <g id="patch_105">
     <path d="M 606.337656 64.08142 
L 685.18875 64.08142 
Q 687.38875 64.08142 687.38875 61.88142 
L 687.38875 30.689545 
Q 687.38875 28.489545 685.18875 28.489545 
L 606.337656 28.489545 
Q 604.137656 28.489545 604.137656 30.689545 
L 604.137656 61.88142 
Q 604.137656 64.08142 606.337656 64.08142 
z
" style="fill:#ffffff;opacity:0.8;stroke:#cccccc;stroke-linejoin:miter;"/>
    </g>
    <g id="patch_106">
     <path d="M 608.537656 41.247827 
L 630.537656 41.247827 
L 630.537656 33.547827 
L 608.537656 33.547827 
z
" style="fill:#55a868;opacity:0.4;stroke:#ffffff;stroke-linejoin:miter;"/>
    </g>
    <g id="text_7">
     <!-- males -->
     <defs>
      <path d="M 9.421875 75.984375 
L 18.40625 75.984375 
L 18.40625 0 
L 9.421875 0 
z
" id="DejaVuSans-108"/>
     </defs>
     <g style="fill:#262626;" transform="translate(639.337656 41.247827)scale(0.11 -0.11)">
      <use xlink:href="#DejaVuSans-109"/>
      <use x="97.412109" xlink:href="#DejaVuSans-97"/>
      <use x="158.691406" xlink:href="#DejaVuSans-108"/>
      <use x="186.474609" xlink:href="#DejaVuSans-101"/>
      <use x="247.998047" xlink:href="#DejaVuSans-115"/>
     </g>
    </g>
    <g id="patch_107">
     <path d="M 608.537656 57.393764 
L 630.537656 57.393764 
L 630.537656 49.693764 
L 608.537656 49.693764 
z
" style="fill:#4c72b0;opacity:0.4;stroke:#ffffff;stroke-linejoin:miter;"/>
    </g>
    <g id="text_8">
     <!-- females -->
     <g style="fill:#262626;" transform="translate(639.337656 57.393764)scale(0.11 -0.11)">
      <use xlink:href="#DejaVuSans-102"/>
      <use x="35.205078" xlink:href="#DejaVuSans-101"/>
      <use x="96.728516" xlink:href="#DejaVuSans-109"/>
      <use x="194.140625" xlink:href="#DejaVuSans-97"/>
      <use x="255.419922" xlink:href="#DejaVuSans-108"/>
      <use x="283.203125" xlink:href="#DejaVuSans-101"/>
      <use x="344.726562" xlink:href="#DejaVuSans-115"/>
     </g>
    </g>
   </g>
  </g>
  <g id="axes_2">
   <g id="patch_108">
    <path d="M 60.30875 376.446818 
L 692.88875 376.446818 
L 692.88875 228.352159 
L 60.30875 228.352159 
z
" style="fill:#ffffff;"/>
   </g>
   <g id="matplotlib.axis_3">
    <g id="xtick_7">
     <g id="line2d_12">
      <g>
       <use style="fill:#262626;stroke:#262626;stroke-width:1.25;" x="84.63875" xlink:href="#mfa1f2e571d" y="376.446818"/>
      </g>
     </g>
     <g id="text_9">
      <!-- 20 -->
      <g style="fill:#262626;" transform="translate(77.64 394.305099)scale(0.11 -0.11)">
       <use xlink:href="#DejaVuSans-50"/>
       <use x="63.623047" xlink:href="#DejaVuSans-48"/>
      </g>
     </g>
    </g>
    <g id="xtick_8">
     <g id="line2d_13">
      <g>
       <use style="fill:#262626;stroke:#262626;stroke-width:1.25;" x="206.28875" xlink:href="#mfa1f2e571d" y="376.446818"/>
      </g>
     </g>
     <g id="text_10">
      <!-- 30 -->
      <defs>
       <path d="M 40.578125 39.3125 
Q 47.65625 37.796875 51.625 33 
Q 55.609375 28.21875 55.609375 21.1875 
Q 55.609375 10.40625 48.1875 4.484375 
Q 40.765625 -1.421875 27.09375 -1.421875 
Q 22.515625 -1.421875 17.65625 -0.515625 
Q 12.796875 0.390625 7.625 2.203125 
L 7.625 11.71875 
Q 11.71875 9.328125 16.59375 8.109375 
Q 21.484375 6.890625 26.8125 6.890625 
Q 36.078125 6.890625 40.9375 10.546875 
Q 45.796875 14.203125 45.796875 21.1875 
Q 45.796875 27.640625 41.28125 31.265625 
Q 36.765625 34.90625 28.71875 34.90625 
L 20.21875 34.90625 
L 20.21875 43.015625 
L 29.109375 43.015625 
Q 36.375 43.015625 40.234375 45.921875 
Q 44.09375 48.828125 44.09375 54.296875 
Q 44.09375 59.90625 40.109375 62.90625 
Q 36.140625 65.921875 28.71875 65.921875 
Q 24.65625 65.921875 20.015625 65.03125 
Q 15.375 64.15625 9.8125 62.3125 
L 9.8125 71.09375 
Q 15.4375 72.65625 20.34375 73.4375 
Q 25.25 74.21875 29.59375 74.21875 
Q 40.828125 74.21875 47.359375 69.109375 
Q 53.90625 64.015625 53.90625 55.328125 
Q 53.90625 49.265625 50.4375 45.09375 
Q 46.96875 40.921875 40.578125 39.3125 
z
" id="DejaVuSans-51"/>
      </defs>
      <g style="fill:#262626;" transform="translate(199.29 394.305099)scale(0.11 -0.11)">
       <use xlink:href="#DejaVuSans-51"/>
       <use x="63.623047" xlink:href="#DejaVuSans-48"/>
      </g>
     </g>
    </g>
    <g id="xtick_9">
     <g id="line2d_14">
      <g>
       <use style="fill:#262626;stroke:#262626;stroke-width:1.25;" x="327.93875" xlink:href="#mfa1f2e571d" y="376.446818"/>
      </g>
     </g>
     <g id="text_11">
      <!-- 40 -->
      <defs>
       <path d="M 37.796875 64.3125 
L 12.890625 25.390625 
L 37.796875 25.390625 
z
M 35.203125 72.90625 
L 47.609375 72.90625 
L 47.609375 25.390625 
L 58.015625 25.390625 
L 58.015625 17.1875 
L 47.609375 17.1875 
L 47.609375 0 
L 37.796875 0 
L 37.796875 17.1875 
L 4.890625 17.1875 
L 4.890625 26.703125 
z
" id="DejaVuSans-52"/>
      </defs>
      <g style="fill:#262626;" transform="translate(320.94 394.305099)scale(0.11 -0.11)">
       <use xlink:href="#DejaVuSans-52"/>
       <use x="63.623047" xlink:href="#DejaVuSans-48"/>
      </g>
     </g>
    </g>
    <g id="xtick_10">
     <g id="line2d_15">
      <g>
       <use style="fill:#262626;stroke:#262626;stroke-width:1.25;" x="449.58875" xlink:href="#mfa1f2e571d" y="376.446818"/>
      </g>
     </g>
     <g id="text_12">
      <!-- 50 -->
      <g style="fill:#262626;" transform="translate(442.59 394.305099)scale(0.11 -0.11)">
       <use xlink:href="#DejaVuSans-53"/>
       <use x="63.623047" xlink:href="#DejaVuSans-48"/>
      </g>
     </g>
    </g>
    <g id="xtick_11">
     <g id="line2d_16">
      <g>
       <use style="fill:#262626;stroke:#262626;stroke-width:1.25;" x="571.23875" xlink:href="#mfa1f2e571d" y="376.446818"/>
      </g>
     </g>
     <g id="text_13">
      <!-- 60 -->
      <defs>
       <path d="M 33.015625 40.375 
Q 26.375 40.375 22.484375 35.828125 
Q 18.609375 31.296875 18.609375 23.390625 
Q 18.609375 15.53125 22.484375 10.953125 
Q 26.375 6.390625 33.015625 6.390625 
Q 39.65625 6.390625 43.53125 10.953125 
Q 47.40625 15.53125 47.40625 23.390625 
Q 47.40625 31.296875 43.53125 35.828125 
Q 39.65625 40.375 33.015625 40.375 
z
M 52.59375 71.296875 
L 52.59375 62.3125 
Q 48.875 64.0625 45.09375 64.984375 
Q 41.3125 65.921875 37.59375 65.921875 
Q 27.828125 65.921875 22.671875 59.328125 
Q 17.53125 52.734375 16.796875 39.40625 
Q 19.671875 43.65625 24.015625 45.921875 
Q 28.375 48.1875 33.59375 48.1875 
Q 44.578125 48.1875 50.953125 41.515625 
Q 57.328125 34.859375 57.328125 23.390625 
Q 57.328125 12.15625 50.6875 5.359375 
Q 44.046875 -1.421875 33.015625 -1.421875 
Q 20.359375 -1.421875 13.671875 8.265625 
Q 6.984375 17.96875 6.984375 36.375 
Q 6.984375 53.65625 15.1875 63.9375 
Q 23.390625 74.21875 37.203125 74.21875 
Q 40.921875 74.21875 44.703125 73.484375 
Q 48.484375 72.75 52.59375 71.296875 
z
" id="DejaVuSans-54"/>
      </defs>
      <g style="fill:#262626;" transform="translate(564.24 394.305099)scale(0.11 -0.11)">
       <use xlink:href="#DejaVuSans-54"/>
       <use x="63.623047" xlink:href="#DejaVuSans-48"/>
      </g>
     </g>
    </g>
    <g id="xtick_12">
     <g id="line2d_17">
      <g>
       <use style="fill:#262626;stroke:#262626;stroke-width:1.25;" x="692.88875" xlink:href="#mfa1f2e571d" y="376.446818"/>
      </g>
     </g>
     <g id="text_14">
      <!-- 70 -->
      <defs>
       <path d="M 8.203125 72.90625 
L 55.078125 72.90625 
L 55.078125 68.703125 
L 28.609375 0 
L 18.3125 0 
L 43.21875 64.59375 
L 8.203125 64.59375 
z
" id="DejaVuSans-55"/>
      </defs>
      <g style="fill:#262626;" transform="translate(685.89 394.305099)scale(0.11 -0.11)">
       <use xlink:href="#DejaVuSans-55"/>
       <use x="63.623047" xlink:href="#DejaVuSans-48"/>
      </g>
     </g>
    </g>
    <g id="text_15">
     <!-- age -->
     <g style="fill:#262626;" transform="translate(365.420937 409.710881)scale(0.12 -0.12)">
      <use xlink:href="#DejaVuSans-97"/>
      <use x="61.279297" xlink:href="#DejaVuSans-103"/>
      <use x="124.755859" xlink:href="#DejaVuSans-101"/>
     </g>
    </g>
   </g>
   <g id="matplotlib.axis_4">
    <g id="ytick_6">
     <g id="line2d_18">
      <g>
       <use style="fill:#262626;stroke:#262626;stroke-width:1.25;" x="60.30875" xlink:href="#m34f28b45ad" y="375.386631"/>
      </g>
     </g>
     <g id="text_16">
      <!-- 40 -->
      <g style="fill:#262626;" transform="translate(36.81125 379.565772)scale(0.11 -0.11)">
       <use xlink:href="#DejaVuSans-52"/>
       <use x="63.623047" xlink:href="#DejaVuSans-48"/>
      </g>
     </g>
    </g>
    <g id="ytick_7">
     <g id="line2d_19">
      <g>
       <use style="fill:#262626;stroke:#262626;stroke-width:1.25;" x="60.30875" xlink:href="#m34f28b45ad" y="345.611843"/>
      </g>
     </g>
     <g id="text_17">
      <!-- 45 -->
      <g style="fill:#262626;" transform="translate(36.81125 349.790983)scale(0.11 -0.11)">
       <use xlink:href="#DejaVuSans-52"/>
       <use x="63.623047" xlink:href="#DejaVuSans-53"/>
      </g>
     </g>
    </g>
    <g id="ytick_8">
     <g id="line2d_20">
      <g>
       <use style="fill:#262626;stroke:#262626;stroke-width:1.25;" x="60.30875" xlink:href="#m34f28b45ad" y="315.837054"/>
      </g>
     </g>
     <g id="text_18">
      <!-- 50 -->
      <g style="fill:#262626;" transform="translate(36.81125 320.016195)scale(0.11 -0.11)">
       <use xlink:href="#DejaVuSans-53"/>
       <use x="63.623047" xlink:href="#DejaVuSans-48"/>
      </g>
     </g>
    </g>
    <g id="ytick_9">
     <g id="line2d_21">
      <g>
       <use style="fill:#262626;stroke:#262626;stroke-width:1.25;" x="60.30875" xlink:href="#m34f28b45ad" y="286.062266"/>
      </g>
     </g>
     <g id="text_19">
      <!-- 55 -->
      <g style="fill:#262626;" transform="translate(36.81125 290.241406)scale(0.11 -0.11)">
       <use xlink:href="#DejaVuSans-53"/>
       <use x="63.623047" xlink:href="#DejaVuSans-53"/>
      </g>
     </g>
    </g>
    <g id="ytick_10">
     <g id="line2d_22">
      <g>
       <use style="fill:#262626;stroke:#262626;stroke-width:1.25;" x="60.30875" xlink:href="#m34f28b45ad" y="256.287477"/>
      </g>
     </g>
     <g id="text_20">
      <!-- 60 -->
      <g style="fill:#262626;" transform="translate(36.81125 260.466618)scale(0.11 -0.11)">
       <use xlink:href="#DejaVuSans-54"/>
       <use x="63.623047" xlink:href="#DejaVuSans-48"/>
      </g>
     </g>
    </g>
    <g id="text_21">
     <!-- percentage of males in age group -->
     <defs>
      <path d="M 48.78125 52.59375 
L 48.78125 44.1875 
Q 44.96875 46.296875 41.140625 47.34375 
Q 37.3125 48.390625 33.40625 48.390625 
Q 24.65625 48.390625 19.8125 42.84375 
Q 14.984375 37.3125 14.984375 27.296875 
Q 14.984375 17.28125 19.8125 11.734375 
Q 24.65625 6.203125 33.40625 6.203125 
Q 37.3125 6.203125 41.140625 7.25 
Q 44.96875 8.296875 48.78125 10.40625 
L 48.78125 2.09375 
Q 45.015625 0.34375 40.984375 -0.53125 
Q 36.96875 -1.421875 32.421875 -1.421875 
Q 20.0625 -1.421875 12.78125 6.34375 
Q 5.515625 14.109375 5.515625 27.296875 
Q 5.515625 40.671875 12.859375 48.328125 
Q 20.21875 56 33.015625 56 
Q 37.15625 56 41.109375 55.140625 
Q 45.0625 54.296875 48.78125 52.59375 
z
" id="DejaVuSans-99"/>
      <path d="M 18.3125 70.21875 
L 18.3125 54.6875 
L 36.8125 54.6875 
L 36.8125 47.703125 
L 18.3125 47.703125 
L 18.3125 18.015625 
Q 18.3125 11.328125 20.140625 9.421875 
Q 21.96875 7.515625 27.59375 7.515625 
L 36.8125 7.515625 
L 36.8125 0 
L 27.59375 0 
Q 17.1875 0 13.234375 3.875 
Q 9.28125 7.765625 9.28125 18.015625 
L 9.28125 47.703125 
L 2.6875 47.703125 
L 2.6875 54.6875 
L 9.28125 54.6875 
L 9.28125 70.21875 
z
" id="DejaVuSans-116"/>
     </defs>
     <g style="fill:#262626;" transform="translate(30.315625 404.215739)rotate(-90)scale(0.12 -0.12)">
      <use xlink:href="#DejaVuSans-112"/>
      <use x="63.476562" xlink:href="#DejaVuSans-101"/>
      <use x="125" xlink:href="#DejaVuSans-114"/>
      <use x="166.082031" xlink:href="#DejaVuSans-99"/>
      <use x="221.0625" xlink:href="#DejaVuSans-101"/>
      <use x="282.585938" xlink:href="#DejaVuSans-110"/>
      <use x="345.964844" xlink:href="#DejaVuSans-116"/>
      <use x="385.173828" xlink:href="#DejaVuSans-97"/>
      <use x="446.453125" xlink:href="#DejaVuSans-103"/>
      <use x="509.929688" xlink:href="#DejaVuSans-101"/>
      <use x="571.453125" xlink:href="#DejaVuSans-32"/>
      <use x="603.240234" xlink:href="#DejaVuSans-111"/>
      <use x="664.421875" xlink:href="#DejaVuSans-102"/>
      <use x="699.626953" xlink:href="#DejaVuSans-32"/>
      <use x="731.414062" xlink:href="#DejaVuSans-109"/>
      <use x="828.826172" xlink:href="#DejaVuSans-97"/>
      <use x="890.105469" xlink:href="#DejaVuSans-108"/>
      <use x="917.888672" xlink:href="#DejaVuSans-101"/>
      <use x="979.412109" xlink:href="#DejaVuSans-115"/>
      <use x="1031.511719" xlink:href="#DejaVuSans-32"/>
      <use x="1063.298828" xlink:href="#DejaVuSans-105"/>
      <use x="1091.082031" xlink:href="#DejaVuSans-110"/>
      <use x="1154.460938" xlink:href="#DejaVuSans-32"/>
      <use x="1186.248047" xlink:href="#DejaVuSans-97"/>
      <use x="1247.527344" xlink:href="#DejaVuSans-103"/>
      <use x="1311.003906" xlink:href="#DejaVuSans-101"/>
      <use x="1372.527344" xlink:href="#DejaVuSans-32"/>
      <use x="1404.314453" xlink:href="#DejaVuSans-103"/>
      <use x="1467.791016" xlink:href="#DejaVuSans-114"/>
      <use x="1508.873047" xlink:href="#DejaVuSans-111"/>
      <use x="1570.054688" xlink:href="#DejaVuSans-117"/>
      <use x="1633.433594" xlink:href="#DejaVuSans-112"/>
     </g>
    </g>
   </g>
   <g id="patch_109">
    <path clip-path="url(#p973a6f9d21)" d="M 54.22625 315.837054 
L 66.39125 315.837054 
L 66.39125 328.363664 
L 54.22625 328.363664 
z
" style="fill:#4c72b0;opacity:0.4;stroke:#4c72b0;stroke-linejoin:miter;"/>
   </g>
   <g id="patch_110">
    <path clip-path="url(#p973a6f9d21)" d="M 66.39125 315.837054 
L 78.55625 315.837054 
L 78.55625 291.958746 
L 66.39125 291.958746 
z
" style="fill:#55a868;opacity:0.4;stroke:#55a868;stroke-linejoin:miter;"/>
   </g>
   <g id="patch_111">
    <path clip-path="url(#p973a6f9d21)" d="M 78.55625 315.837054 
L 90.72125 315.837054 
L 90.72125 265.535471 
L 78.55625 265.535471 
z
" style="fill:#55a868;opacity:0.4;stroke:#55a868;stroke-linejoin:miter;"/>
   </g>
   <g id="patch_112">
    <path clip-path="url(#p973a6f9d21)" d="M 90.72125 315.837054 
L 102.88625 315.837054 
L 102.88625 282.392674 
L 90.72125 282.392674 
z
" style="fill:#55a868;opacity:0.4;stroke:#55a868;stroke-linejoin:miter;"/>
   </g>
   <g id="patch_113">
    <path clip-path="url(#p973a6f9d21)" d="M 102.88625 315.837054 
L 115.05125 315.837054 
L 115.05125 272.113994 
L 102.88625 272.113994 
z
" style="fill:#55a868;opacity:0.4;stroke:#55a868;stroke-linejoin:miter;"/>
   </g>
   <g id="patch_114">
    <path clip-path="url(#p973a6f9d21)" d="M 115.05125 315.837054 
L 127.21625 315.837054 
L 127.21625 258.860607 
L 115.05125 258.860607 
z
" style="fill:#55a868;opacity:0.4;stroke:#55a868;stroke-linejoin:miter;"/>
   </g>
   <g id="patch_115">
    <path clip-path="url(#p973a6f9d21)" d="M 127.21625 315.837054 
L 139.38125 315.837054 
L 139.38125 246.956452 
L 127.21625 246.956452 
z
" style="fill:#55a868;opacity:0.4;stroke:#55a868;stroke-linejoin:miter;"/>
   </g>
   <g id="patch_116">
    <path clip-path="url(#p973a6f9d21)" d="M 139.38125 315.837054 
L 151.54625 315.837054 
L 151.54625 247.956271 
L 139.38125 247.956271 
z
" style="fill:#55a868;opacity:0.4;stroke:#55a868;stroke-linejoin:miter;"/>
   </g>
   <g id="patch_117">
    <path clip-path="url(#p973a6f9d21)" d="M 151.54625 315.837054 
L 163.71125 315.837054 
L 163.71125 235.083735 
L 151.54625 235.083735 
z
" style="fill:#55a868;opacity:0.4;stroke:#55a868;stroke-linejoin:miter;"/>
   </g>
   <g id="patch_118">
    <path clip-path="url(#p973a6f9d21)" d="M 163.71125 315.837054 
L 175.87625 315.837054 
L 175.87625 237.703485 
L 163.71125 237.703485 
z
" style="fill:#55a868;opacity:0.4;stroke:#55a868;stroke-linejoin:miter;"/>
   </g>
   <g id="patch_119">
    <path clip-path="url(#p973a6f9d21)" d="M 175.87625 315.837054 
L 188.04125 315.837054 
L 188.04125 241.130008 
L 175.87625 241.130008 
z
" style="fill:#55a868;opacity:0.4;stroke:#55a868;stroke-linejoin:miter;"/>
   </g>
   <g id="patch_120">
    <path clip-path="url(#p973a6f9d21)" d="M 188.04125 315.837054 
L 200.20625 315.837054 
L 200.20625 242.371491 
L 188.04125 242.371491 
z
" style="fill:#55a868;opacity:0.4;stroke:#55a868;stroke-linejoin:miter;"/>
   </g>
   <g id="patch_121">
    <path clip-path="url(#p973a6f9d21)" d="M 200.20625 315.837054 
L 212.37125 315.837054 
L 212.37125 240.667296 
L 200.20625 240.667296 
z
" style="fill:#55a868;opacity:0.4;stroke:#55a868;stroke-linejoin:miter;"/>
   </g>
   <g id="patch_122">
    <path clip-path="url(#p973a6f9d21)" d="M 212.37125 315.837054 
L 224.53625 315.837054 
L 224.53625 248.884605 
L 212.37125 248.884605 
z
" style="fill:#55a868;opacity:0.4;stroke:#55a868;stroke-linejoin:miter;"/>
   </g>
   <g id="patch_123">
    <path clip-path="url(#p973a6f9d21)" d="M 224.53625 315.837054 
L 236.70125 315.837054 
L 236.70125 261.858022 
L 224.53625 261.858022 
z
" style="fill:#55a868;opacity:0.4;stroke:#55a868;stroke-linejoin:miter;"/>
   </g>
   <g id="patch_124">
    <path clip-path="url(#p973a6f9d21)" d="M 236.70125 315.837054 
L 248.86625 315.837054 
L 248.86625 258.878937 
L 236.70125 258.878937 
z
" style="fill:#55a868;opacity:0.4;stroke:#55a868;stroke-linejoin:miter;"/>
   </g>
   <g id="patch_125">
    <path clip-path="url(#p973a6f9d21)" d="M 248.86625 315.837054 
L 261.03125 315.837054 
L 261.03125 260.107166 
L 248.86625 260.107166 
z
" style="fill:#55a868;opacity:0.4;stroke:#55a868;stroke-linejoin:miter;"/>
   </g>
   <g id="patch_126">
    <path clip-path="url(#p973a6f9d21)" d="M 261.03125 315.837054 
L 273.19625 315.837054 
L 273.19625 266.127578 
L 261.03125 266.127578 
z
" style="fill:#55a868;opacity:0.4;stroke:#55a868;stroke-linejoin:miter;"/>
   </g>
   <g id="patch_127">
    <path clip-path="url(#p973a6f9d21)" d="M 273.19625 315.837054 
L 285.36125 315.837054 
L 285.36125 267.497695 
L 273.19625 267.497695 
z
" style="fill:#55a868;opacity:0.4;stroke:#55a868;stroke-linejoin:miter;"/>
   </g>
   <g id="patch_128">
    <path clip-path="url(#p973a6f9d21)" d="M 285.36125 315.837054 
L 297.52625 315.837054 
L 297.52625 257.622857 
L 285.36125 257.622857 
z
" style="fill:#55a868;opacity:0.4;stroke:#55a868;stroke-linejoin:miter;"/>
   </g>
   <g id="patch_129">
    <path clip-path="url(#p973a6f9d21)" d="M 297.52625 315.837054 
L 309.69125 315.837054 
L 309.69125 258.078442 
L 297.52625 258.078442 
z
" style="fill:#55a868;opacity:0.4;stroke:#55a868;stroke-linejoin:miter;"/>
   </g>
   <g id="patch_130">
    <path clip-path="url(#p973a6f9d21)" d="M 309.69125 315.837054 
L 321.85625 315.837054 
L 321.85625 259.437711 
L 309.69125 259.437711 
z
" style="fill:#55a868;opacity:0.4;stroke:#55a868;stroke-linejoin:miter;"/>
   </g>
   <g id="patch_131">
    <path clip-path="url(#p973a6f9d21)" d="M 321.85625 315.837054 
L 334.02125 315.837054 
L 334.02125 257.44378 
L 321.85625 257.44378 
z
" style="fill:#55a868;opacity:0.4;stroke:#55a868;stroke-linejoin:miter;"/>
   </g>
   <g id="patch_132">
    <path clip-path="url(#p973a6f9d21)" d="M 334.02125 315.837054 
L 346.18625 315.837054 
L 346.18625 247.172746 
L 334.02125 247.172746 
z
" style="fill:#55a868;opacity:0.4;stroke:#55a868;stroke-linejoin:miter;"/>
   </g>
   <g id="patch_133">
    <path clip-path="url(#p973a6f9d21)" d="M 346.18625 315.837054 
L 358.35125 315.837054 
L 358.35125 280.840568 
L 346.18625 280.840568 
z
" style="fill:#55a868;opacity:0.4;stroke:#55a868;stroke-linejoin:miter;"/>
   </g>
   <g id="patch_134">
    <path clip-path="url(#p973a6f9d21)" d="M 358.35125 315.837054 
L 370.51625 315.837054 
L 370.51625 267.947534 
L 358.35125 267.947534 
z
" style="fill:#55a868;opacity:0.4;stroke:#55a868;stroke-linejoin:miter;"/>
   </g>
   <g id="patch_135">
    <path clip-path="url(#p973a6f9d21)" d="M 370.51625 315.837054 
L 382.68125 315.837054 
L 382.68125 254.437067 
L 370.51625 254.437067 
z
" style="fill:#55a868;opacity:0.4;stroke:#55a868;stroke-linejoin:miter;"/>
   </g>
   <g id="patch_136">
    <path clip-path="url(#p973a6f9d21)" d="M 382.68125 315.837054 
L 394.84625 315.837054 
L 394.84625 250.545528 
L 382.68125 250.545528 
z
" style="fill:#55a868;opacity:0.4;stroke:#55a868;stroke-linejoin:miter;"/>
   </g>
   <g id="patch_137">
    <path clip-path="url(#p973a6f9d21)" d="M 394.84625 315.837054 
L 407.01125 315.837054 
L 407.01125 263.29331 
L 394.84625 263.29331 
z
" style="fill:#55a868;opacity:0.4;stroke:#55a868;stroke-linejoin:miter;"/>
   </g>
   <g id="patch_138">
    <path clip-path="url(#p973a6f9d21)" d="M 407.01125 315.837054 
L 419.17625 315.837054 
L 419.17625 267.994767 
L 407.01125 267.994767 
z
" style="fill:#55a868;opacity:0.4;stroke:#55a868;stroke-linejoin:miter;"/>
   </g>
   <g id="patch_139">
    <path clip-path="url(#p973a6f9d21)" d="M 419.17625 315.837054 
L 431.34125 315.837054 
L 431.34125 250.840115 
L 419.17625 250.840115 
z
" style="fill:#55a868;opacity:0.4;stroke:#55a868;stroke-linejoin:miter;"/>
   </g>
   <g id="patch_140">
    <path clip-path="url(#p973a6f9d21)" d="M 431.34125 315.837054 
L 443.50625 315.837054 
L 443.50625 284.051332 
L 431.34125 284.051332 
z
" style="fill:#55a868;opacity:0.4;stroke:#55a868;stroke-linejoin:miter;"/>
   </g>
   <g id="patch_141">
    <path clip-path="url(#p973a6f9d21)" d="M 443.50625 315.837054 
L 455.67125 315.837054 
L 455.67125 285.176517 
L 443.50625 285.176517 
z
" style="fill:#55a868;opacity:0.4;stroke:#55a868;stroke-linejoin:miter;"/>
   </g>
   <g id="patch_142">
    <path clip-path="url(#p973a6f9d21)" d="M 455.67125 315.837054 
L 467.83625 315.837054 
L 467.83625 280.107308 
L 455.67125 280.107308 
z
" style="fill:#55a868;opacity:0.4;stroke:#55a868;stroke-linejoin:miter;"/>
   </g>
   <g id="patch_143">
    <path clip-path="url(#p973a6f9d21)" d="M 467.83625 315.837054 
L 480.00125 315.837054 
L 480.00125 301.988315 
L 467.83625 301.988315 
z
" style="fill:#55a868;opacity:0.4;stroke:#55a868;stroke-linejoin:miter;"/>
   </g>
   <g id="patch_144">
    <path clip-path="url(#p973a6f9d21)" d="M 480.00125 315.837054 
L 492.16625 315.837054 
L 492.16625 311.110897 
L 480.00125 311.110897 
z
" style="fill:#55a868;opacity:0.4;stroke:#55a868;stroke-linejoin:miter;"/>
   </g>
   <g id="patch_145">
    <path clip-path="url(#p973a6f9d21)" d="M 492.16625 315.837054 
L 504.33125 315.837054 
L 504.33125 265.654827 
L 492.16625 265.654827 
z
" style="fill:#55a868;opacity:0.4;stroke:#55a868;stroke-linejoin:miter;"/>
   </g>
   <g id="patch_146">
    <path clip-path="url(#p973a6f9d21)" d="M 504.33125 315.837054 
L 516.49625 315.837054 
L 516.49625 330.443554 
L 504.33125 330.443554 
z
" style="fill:#4c72b0;opacity:0.4;stroke:#4c72b0;stroke-linejoin:miter;"/>
   </g>
   <g id="patch_147">
    <path clip-path="url(#p973a6f9d21)" d="M 516.49625 315.837054 
L 528.66125 315.837054 
L 528.66125 314.738354 
L 516.49625 314.738354 
z
" style="fill:#55a868;opacity:0.4;stroke:#55a868;stroke-linejoin:miter;"/>
   </g>
   <g id="patch_148">
    <path clip-path="url(#p973a6f9d21)" d="M 528.66125 315.837054 
L 540.82625 315.837054 
L 540.82625 297.227812 
L 528.66125 297.227812 
z
" style="fill:#55a868;opacity:0.4;stroke:#55a868;stroke-linejoin:miter;"/>
   </g>
   <g id="patch_149">
    <path clip-path="url(#p973a6f9d21)" d="M 540.82625 315.837054 
L 552.99125 315.837054 
L 552.99125 314.325644 
L 540.82625 314.325644 
z
" style="fill:#55a868;opacity:0.4;stroke:#55a868;stroke-linejoin:miter;"/>
   </g>
   <g id="patch_150">
    <path clip-path="url(#p973a6f9d21)" d="M 552.99125 315.837054 
L 565.15625 315.837054 
L 565.15625 314.489779 
L 552.99125 314.489779 
z
" style="fill:#55a868;opacity:0.4;stroke:#55a868;stroke-linejoin:miter;"/>
   </g>
   <g id="patch_151">
    <path clip-path="url(#p973a6f9d21)" d="M 565.15625 315.837054 
L 577.32125 315.837054 
L 577.32125 341.794562 
L 565.15625 341.794562 
z
" style="fill:#4c72b0;opacity:0.4;stroke:#4c72b0;stroke-linejoin:miter;"/>
   </g>
   <g id="patch_152">
    <path clip-path="url(#p973a6f9d21)" d="M 577.32125 315.837054 
L 589.48625 315.837054 
L 589.48625 346.288542 
L 577.32125 346.288542 
z
" style="fill:#4c72b0;opacity:0.4;stroke:#4c72b0;stroke-linejoin:miter;"/>
   </g>
   <g id="patch_153">
    <path clip-path="url(#p973a6f9d21)" d="M 589.48625 315.837054 
L 601.65125 315.837054 
L 601.65125 335.44919 
L 589.48625 335.44919 
z
" style="fill:#4c72b0;opacity:0.4;stroke:#4c72b0;stroke-linejoin:miter;"/>
   </g>
   <g id="patch_154">
    <path clip-path="url(#p973a6f9d21)" d="M 601.65125 315.837054 
L 613.81625 315.837054 
L 613.81625 337.412988 
L 601.65125 337.412988 
z
" style="fill:#4c72b0;opacity:0.4;stroke:#4c72b0;stroke-linejoin:miter;"/>
   </g>
   <g id="patch_155">
    <path clip-path="url(#p973a6f9d21)" d="M 613.81625 315.837054 
L 625.98125 315.837054 
L 625.98125 350.091236 
L 613.81625 350.091236 
z
" style="fill:#4c72b0;opacity:0.4;stroke:#4c72b0;stroke-linejoin:miter;"/>
   </g>
   <g id="patch_156">
    <path clip-path="url(#p973a6f9d21)" d="M 625.98125 315.837054 
L 638.14625 315.837054 
L 638.14625 345.885006 
L 625.98125 345.885006 
z
" style="fill:#4c72b0;opacity:0.4;stroke:#4c72b0;stroke-linejoin:miter;"/>
   </g>
   <g id="patch_157">
    <path clip-path="url(#p973a6f9d21)" d="M 638.14625 315.837054 
L 650.31125 315.837054 
L 650.31125 369.715243 
L 638.14625 369.715243 
z
" style="fill:#4c72b0;opacity:0.4;stroke:#4c72b0;stroke-linejoin:miter;"/>
   </g>
   <g id="patch_158">
    <path clip-path="url(#p973a6f9d21)" d="z
" style="fill:#4c72b0;opacity:0.4;stroke:#4c72b0;stroke-linejoin:miter;"/>
   </g>
   <g id="patch_159">
    <path clip-path="url(#p973a6f9d21)" d="z
" style="fill:#4c72b0;opacity:0.4;stroke:#4c72b0;stroke-linejoin:miter;"/>
   </g>
   <g id="patch_160">
    <path clip-path="url(#p973a6f9d21)" d="z
" style="fill:#4c72b0;opacity:0.4;stroke:#4c72b0;stroke-linejoin:miter;"/>
   </g>
   <g id="line2d_23">
    <path clip-path="url(#p973a6f9d21)" d="M 60.30875 315.837054 
L 692.88875 315.837054 
" style="fill:none;stroke:#1a1a1a;stroke-linecap:round;stroke-width:1.5;"/>
   </g>
   <g id="patch_161">
    <path d="M 60.30875 376.446818 
L 60.30875 228.352159 
" style="fill:none;stroke:#262626;stroke-linecap:square;stroke-linejoin:miter;stroke-width:1.25;"/>
   </g>
   <g id="patch_162">
    <path d="M 60.30875 376.446818 
L 692.88875 376.446818 
" style="fill:none;stroke:#262626;stroke-linecap:square;stroke-linejoin:miter;stroke-width:1.25;"/>
   </g>
  </g>
 </g>
 <defs>
  <clipPath id="p24aa4dce5f">
   <rect height="148.094659" width="632.58" x="60.30875" y="22.989545"/>
  </clipPath>
  <clipPath id="p973a6f9d21">
   <rect height="148.094659" width="632.58" x="60.30875" y="228.352159"/>
  </clipPath>
 </defs>
</svg>
